PathFileType	4	(X/Y/Z)	 s04c0302.trc
DataRate	CameraRate	NumFrames	NumMarkers	Units	OrigDataRate	OrigDataStartFrame	OrigNumFrames
200	200	6	50	mm	200	1501	2000
Frame#	Time	racr			lacr			c7			jug			rlel			rdr			llel			ldr			s2			lic			ric			lasi			rasi			rpsi			lpsi			rgt			lgt			rth1			rth2			rth3			rth4			rlfc			rmfc			rsh1			rsh2			rsh3			rsh4			rlmal			rmmal			rcal			rtoe			rmt5			lth1			lth2			lth4			lth3			llfc			lmfc			lsh1			lsh2			lsh3			lsh4			llmal			lmmal			lcal			ltoe			lmt5			SBIKE			LBIKE			RBIKE			
		X1	Y1	Z1	X2	Y2	Z2	X3	Y3	Z3	X4	Y4	Z4	X5	Y5	Z5	X6	Y6	Z6	X7	Y7	Z7	X8	Y8	Z8	X9	Y9	Z9	X10	Y10	Z10	X11	Y11	Z11	X12	Y12	Z12	X13	Y13	Z13	X14	Y14	Z14	X15	Y15	Z15	X16	Y16	Z16	X17	Y17	Z17	X18	Y18	Z18	X19	Y19	Z19	X20	Y20	Z20	X21	Y21	Z21	X22	Y22	Z22	X23	Y23	Z23	X24	Y24	Z24	X25	Y25	Z25	X26	Y26	Z26	X27	Y27	Z27	X28	Y28	Z28	X29	Y29	Z29	X30	Y30	Z30	X31	Y31	Z31	X32	Y32	Z32	X33	Y33	Z33	X34	Y34	Z34	X35	Y35	Z35	X36	Y36	Z36	X37	Y37	Z37	X38	Y38	Z38	X39	Y39	Z39	X40	Y40	Z40	X41	Y41	Z41	X42	Y42	Z42	X43	Y43	Z43	X44	Y44	Z44	X45	Y45	Z45	X46	Y46	Z46	X47	Y47	Z47	X48	Y48	Z48	X49	Y49	Z49	X50	Y50	Z50	
1501	7.5050	810.829928	1270.302651	-126.354555	814.399017	1265.468968	-430.062940	824.748457	1334.733072	-281.971673	748.470355	1193.201155	-289.639626	564.477112	1128.158044	41.427858	708.451240	914.724972	-68.191839	586.065912	1125.054438	-562.838847	708.571722	919.195736	-452.573815	221.910923	1244.577024	-201.089211	341.396697	1255.726142	-387.194076	404.539744	1200.134175	-74.739702	381.799903	1199.517416	-357.005925	424.982487	1147.824184	-131.838984	269.024077	1275.442937	-159.623311	253.158551	1290.829457	-231.052992	336.253119	1144.340396	-55.664073	301.069955	1179.582352	-419.008920	360.924346	987.486422	-43.441855	379.985218	903.422865	-61.580928	358.940584	821.210573	-68.453360	411.890951	906.548151	-81.280102	353.988507	675.590233	-101.697613	310.524031	666.531211	-207.519457	292.934520	563.575493	-72.777772	273.089704	476.065460	-90.587478	213.735161	413.918974	-92.860351	300.928359	467.019467	-116.543234	156.724186	271.017742	-98.863874	165.950484	279.529620	-185.953600	83.061295	272.985457	-124.843997	347.193577	132.168746	-170.861318	286.782358	135.895454	-104.419561	362.421360	1115.572141	-433.489977	443.718703	1086.883987	-446.487358	464.959266	1114.522509	-434.810496	499.396991	1020.549102	-464.814571	609.649311	909.229788	-463.672289	643.259896	875.511375	-353.802059	540.004287	829.025746	-483.197949	487.548509	763.677745	-458.407493	405.635536	729.432705	-450.487141	508.359405	743.268265	-432.198014	283.353771	642.333987	-434.772876	287.876557	644.578231	-348.176636	218.389835	686.940967	-389.688573	380.074511	429.128654	-401.015371	310.545970	470.380185	-461.807384	-176.503620	935.639495	-278.239958	-3.205324	85.976015	-484.495956	-15.018201	80.449416	-84.095603	
1502	7.5100	810.279684	1272.803280	-128.035676	815.184593	1264.761409	-431.158976	824.920599	1335.624498	-283.694426	748.593623	1194.070212	-290.446872	565.690453	1129.039401	40.038185	708.611279	914.736687	-68.696641	586.311708	1125.608802	-563.503178	708.630688	919.785905	-452.965149	222.388314	1246.658447	-200.036361	337.016044	1257.010867	-383.961577	406.110059	1201.694630	-75.273000	381.050603	1201.324438	-357.273380	425.631338	1149.142824	-132.448848	270.142630	1277.414820	-159.111887	253.866951	1293.132544	-230.431596	337.048728	1146.554814	-54.982371	300.417318	1182.449552	-418.705013	359.759213	989.404690	-41.480085	377.495168	904.705509	-59.022779	354.938107	822.785444	-65.500323	409.443752	907.077243	-78.761778	347.933345	677.014854	-98.816750	306.086797	668.074985	-205.355757	285.868909	565.729744	-70.489047	265.792296	478.424318	-88.022924	205.879839	416.770171	-91.328813	293.872517	469.026028	-114.304314	148.701593	273.812090	-98.440349	160.109192	281.632308	-184.469637	75.014250	277.081607	-124.946107	336.802571	131.765677	-170.799483	276.367418	136.254677	-104.391730	361.702980	1119.341959	-432.107876	443.182343	1091.882360	-445.641475	464.248062	1119.824467	-434.567447	499.746385	1025.899566	-463.553035	610.859493	915.360395	-463.853426	648.541446	882.955214	-352.674537	543.390702	834.025648	-482.325825	492.620961	767.115209	-458.284097	411.559040	730.844122	-450.401943	513.944525	746.927967	-432.291970	291.031412	641.159220	-435.065311	295.850792	643.483565	-347.504356	225.642242	685.052572	-390.177330	391.730611	429.780914	-400.451960	321.274720	469.723750	-461.653550	-176.573034	935.605253	-278.399893	-3.206656	85.955742	-484.511547	-15.040768	80.456500	-84.100550	
1503	7.5150	809.635238	1275.091035	-129.721895	815.651712	1263.861341	-432.029762	825.194832	1336.298678	-285.252115	748.171500	1195.081883	-291.153890	566.755111	1129.924410	38.736311	708.697703	914.706323	-69.042471	586.217254	1125.823031	-564.467023	708.592628	920.368654	-453.331878	222.733222	1249.113234	-199.389419	336.003053	1258.669777	-384.079611	407.377964	1203.888901	-75.869558	380.410367	1203.135861	-357.615925	426.109602	1150.949843	-132.918633	271.073018	1279.828799	-159.391393	253.951457	1295.525623	-229.779273	338.041842	1148.956097	-54.783861	299.731756	1185.334545	-418.506461	358.919546	991.851289	-39.603566	375.422786	906.570603	-56.429219	351.499046	824.879582	-62.742137	407.440637	908.303110	-76.183291	342.790845	678.972582	-96.149775	302.540870	670.069060	-203.505187	279.499271	568.619880	-68.540289	258.697367	481.440403	-86.860325	198.397018	420.072644	-90.812073	286.267413	471.525792	-112.844162	140.786697	277.723523	-98.132666	153.614768	285.637157	-184.480582	67.338214	282.071133	-125.186021	326.456421	131.948001	-170.596106	265.948638	137.372767	-104.249815	360.804817	1123.036062	-431.236443	442.523576	1096.357547	-444.586299	463.338708	1124.289369	-432.982940	500.207737	1030.818438	-461.588717	614.378069	922.015048	-461.330986	649.942873	889.581577	-351.585472	546.222514	838.041971	-481.369673	496.958831	769.555675	-458.039211	416.773031	731.491763	-450.062162	518.723298	749.739448	-432.226753	298.181855	639.093925	-435.476585	305.504693	642.123455	-347.175662	231.927305	682.014607	-390.558116	403.000930	430.076619	-400.196069	332.180678	468.719515	-462.160770	-176.621022	935.605376	-278.510673	-3.226550	85.945521	-484.515092	-15.059840	80.478495	-84.108308	
1504	7.5200	809.064306	1277.345314	-131.493652	815.815818	1262.848595	-432.674370	825.523797	1336.997152	-286.773679	747.489538	1196.303011	-291.873744	567.782058	1130.925047	37.593658	708.857595	914.787688	-69.187165	586.071062	1125.659914	-565.735357	708.672780	921.262132	-453.410161	223.110718	1251.844167	-198.834561	335.321710	1260.454292	-384.521208	408.418182	1206.639316	-76.418332	379.878200	1204.935586	-358.030370	426.399540	1153.234437	-133.270846	271.904972	1283.039911	-159.741271	254.002359	1298.242116	-229.639961	338.666751	1151.839934	-55.112846	298.903412	1188.451573	-418.189659	358.281762	994.167422	-38.171850	373.867516	908.909444	-53.917725	348.614184	827.468005	-60.302128	405.786785	910.114733	-73.850496	338.668247	681.406257	-94.029515	300.055232	672.380648	-202.004004	273.934616	572.193303	-66.952162	252.334431	485.411780	-85.427295	191.571394	424.590810	-89.774610	280.254844	474.971305	-110.942452	133.127753	282.451357	-97.871792	146.962510	290.071400	-184.087307	60.035978	287.884108	-125.441490	316.240933	132.912702	-170.275481	255.666427	139.267512	-104.097681	359.808498	1126.615233	-430.769384	441.670066	1100.335381	-443.528054	462.253189	1128.447968	-432.010201	499.669390	1035.035256	-461.041855	615.133865	926.869130	-460.445647	651.373346	894.342800	-350.351371	548.573996	840.982848	-480.365822	500.735450	771.320127	-457.688774	421.317174	731.587525	-449.985973	522.877460	751.646112	-432.147997	304.631524	636.520528	-435.950617	313.994550	639.739386	-347.364246	237.227621	678.019985	-391.468476	414.122031	430.273809	-400.205876	341.988193	466.598958	-461.607404	-176.698024	935.595716	-278.585044	-3.223124	85.953510	-484.524043	-15.053118	80.481175	-84.111708	
1505	7.5250	808.408311	1279.550935	-133.248476	814.913942	1261.633283	-432.631327	825.891642	1337.642761	-288.179661	745.639768	1198.171814	-292.455071	568.724789	1131.901314	36.532798	709.004129	914.820905	-69.331054	585.813440	1125.334380	-567.214194	708.432769	922.221110	-453.906094	223.436346	1254.832113	-198.757731	335.072349	1262.294946	-385.098993	409.181410	1209.909119	-76.935068	379.453104	1206.707514	-358.513528	426.479320	1155.961885	-133.445920	272.562209	1286.293522	-160.134820	254.278426	1301.182172	-230.002197	339.544675	1155.326769	-55.357656	298.250419	1191.683475	-417.936996	357.924132	997.274742	-36.640669	372.730355	911.668896	-51.756529	346.522467	830.517561	-58.229729	404.781365	912.491909	-71.632594	335.691409	684.463888	-91.977859	298.693148	675.151666	-200.937170	269.605633	576.308237	-65.672997	246.870233	489.540984	-84.376833	185.378364	429.721181	-89.254887	274.944388	478.846419	-109.411057	125.909458	287.862122	-97.618551	140.607326	295.184185	-183.620904	53.127424	294.542632	-125.831785	306.214737	134.313430	-169.779775	245.257029	141.502818	-104.058466	358.729401	1130.121288	-430.440089	440.640630	1103.755584	-442.491630	461.108245	1131.899308	-431.024648	498.557202	1038.543020	-460.148090	614.623991	930.218722	-459.786559	651.778075	897.499027	-349.181663	550.320566	842.959945	-479.189540	503.823847	772.101285	-457.358501	425.154266	730.873974	-450.027311	526.385037	752.662698	-431.934987	310.356298	633.132389	-436.420718	322.056222	636.715478	-347.770999	241.459479	673.010624	-392.355609	424.871849	430.316584	-400.467534	351.990325	464.243116	-461.699193	-176.800444	935.600362	-278.642993	-3.249045	85.976402	-484.518072	-15.071773	80.500776	-84.127742	
1506	7.5300	807.899913	1281.748672	-134.822355	814.760591	1260.536335	-433.379735	826.221224	1338.343912	-289.609615	744.753099	1199.555066	-293.070696	569.711784	1133.048500	35.640418	709.130871	914.873662	-69.509772	585.377446	1125.094361	-568.832404	708.100192	923.240837	-454.574628	223.708147	1258.104265	-198.951839	335.190285	1264.120130	-385.784086	409.597861	1213.647744	-77.350177	379.134086	1208.435547	-359.062207	426.384356	1159.076042	-133.446224	273.081898	1289.887333	-160.702465	254.493803	1304.414048	-230.480370	340.059754	1159.262768	-55.765253	297.808603	1194.893197	-417.742815	357.826032	1000.645610	-35.445868	372.143842	914.887968	-50.027211	345.255369	833.932348	-56.610739	404.284050	915.337961	-69.823030	333.952089	687.776541	-90.529403	298.565058	678.390597	-200.318924	266.180204	580.807286	-64.790110	242.403804	494.406420	-83.502815	180.026925	435.420475	-88.946246	270.506974	483.114184	-108.050915	118.834040	294.376642	-97.004138	134.741842	301.063572	-183.287523	46.771173	302.083377	-126.385462	296.440656	136.344748	-169.080799	235.207787	144.514440	-103.676921	357.606893	1133.336889	-430.193074	439.366306	1106.399007	-441.635705	459.917306	1134.543948	-430.292015	496.929352	1040.944251	-459.136111	616.722668	932.094384	-456.613034	651.482111	899.192839	-347.853133	551.393838	843.693510	-477.792505	506.075433	771.799164	-456.930398	427.992107	729.290938	-450.291275	528.973394	752.456830	-431.585246	315.183952	629.011393	-437.085316	329.559564	633.391559	-348.724815	244.948485	666.826963	-393.633894	435.607275	430.207458	-400.219190	361.798876	461.498838	-461.655785	-176.873033	935.615883	-278.691408	-3.262320	85.981563	-484.515825	-15.076984	80.514408	-84.101719	
